<svg width="100" height="100" version="1.1" viewBox="0 0 26.458333 26.458334" xmlns="http://www.w3.org/2000/svg">
 <g fill="#33a2e5" stroke-width=".264583" aria-label="MQTT">
  <path d="m4.6723784 15.079596q-0.0846667-0.2032-0.2286001-0.516467-0.1354667-0.313267-0.2963335-0.677334-0.1608667-0.364067-0.3471334-0.745067-0.1778001-0.389467-0.3386668-0.728133-0.1608668-0.347134-0.3048002-0.618067-0.1354667-0.270934-0.2201334-0.414867-0.093133 0.999067-0.1524 2.167467-0.059267 1.159934-0.1016001 2.345268h-0.8043336q0.033867-0.762 0.0762-1.532467 0.042333-0.778934 0.093133-1.524001 0.059267-0.753534 0.1185334-1.464734 0.067733-0.7112 0.1439333-1.3462h0.719667q0.2286001 0.372533 0.4910669 0.880533 0.2624667 0.508001 0.5249335 1.066801 0.2624668 0.550333 0.5080002 1.109134 0.2455334 0.550333 0.4487335 1.007533 0.2032001-0.4572 0.4487335-1.007533 0.2455335-0.558801 0.5080002-1.109134 0.2624668-0.5588 0.5249336-1.066801 0.2624667-0.508 0.4910668-0.880533h0.719667q0.2878668 2.836334 0.4318002 5.867402h-0.8043333q-0.042333-1.185334-0.1016-2.345268-0.059267-1.1684-0.1524001-2.167467-0.084667 0.143933-0.2286001 0.414867-0.1354667 0.270933-0.2963334 0.618067-0.1608668 0.338666-0.3471335 0.728133-0.1778001 0.381-0.3386668 0.745067t-0.3048001 0.677334q-0.1354668 0.313267-0.2201335 0.516467z"/>
  <path d="m9.1766332 12.954461c0-0.502355 0.073378-0.945444 0.2201334-1.329267 0.1524001-0.383822 0.3556002-0.702733 0.6096004-0.956733 0.259645-0.259645 0.5588-0.454378 0.897467-0.584201 0.344311-0.1298221 0.708378-0.1947331 1.0922-0.1947331 0.378178 0 0.733778 0.064911 1.066801 0.1947331 0.338667 0.129823 0.635 0.324556 0.889 0.584201 0.254 0.254 0.454378 0.572911 0.601134 0.956733 0.1524 0.383823 0.2286 0.826912 0.2286 1.329267 0 0.440267-0.05645 0.832557-0.169334 1.176868-0.112889 0.344311-0.270933 0.643466-0.474133 0.897467-0.197556 0.248355-0.431801 0.451555-0.702734 0.6096-0.265289 0.1524-0.550333 0.256822-0.855133 0.313267 0.0057 0.129822 0.06211 0.242711 0.169333 0.338666 0.112889 0.101601 0.254 0.186268 0.423333 0.254001 0.169334 0.06773 0.358423 0.124178 0.567267 0.169333 0.208845 0.04515 0.417689 0.07902 0.626534 0.1016 2.583545 0.487979 8.882657-0.192416 9.152778 1.617775 0.139685 0.936085-3.796112 1.219864-7.10447 0.798491-3.308358-0.421374-4.657847-0.787407-7.6090504-1.19643-2.9544033-0.409466-6.1333709-0.447074-6.4891448-0.724408-0.6770219-0.527755 3.4543938-0.475336 6.9208231 0.0028 4.9610441 0.684341 11.093811 1.506895 12.970234 0.928374 0.199269-0.525525-8.129604-0.647018-8.035904-0.783168-0.293511-0.03951-0.575733-0.09314-0.846667-0.160867-0.265289-0.06209-0.508-0.146753-0.728133-0.254-0.214489-0.107245-0.395112-0.245534-0.541867-0.414867-0.146755-0.163689-0.245533-0.369711-0.296333-0.618067-0.355601-0.02258-0.691445-0.104424-1.007534-0.245533-0.316089-0.146755-0.589845-0.347133-0.8212672-0.601134-0.2314223-0.259644-0.4148669-0.572911-0.5503336-0.9398s-0.2032-0.790223-0.2032-1.270001zm0.8636008 0c0 0.355601 0.04515 0.680157 0.135466 0.973668 0.09031 0.287867 0.217311 0.5334 0.381 0.7366 0.169333 0.2032 0.372534 0.361244 0.609601 0.474133 0.242711 0.107245 0.513644 0.160867 0.8128 0.160867 0.299155 0 0.567267-0.05362 0.804334-0.160867 0.237067-0.112889 0.437444-0.270933 0.601133-0.474133 0.169333-0.2032 0.299156-0.448733 0.389467-0.7366 0.09031-0.293511 0.135467-0.618067 0.135467-0.973668 0-0.3556-0.04516-0.677333-0.135467-0.9652-0.09031-0.293511-0.220134-0.541867-0.389467-0.745067-0.163689-0.2032-0.364066-0.358422-0.601133-0.465667-0.237067-0.112889-0.505179-0.169333-0.804334-0.169333-0.299156 0-0.570089 0.05644-0.8128 0.169333-0.237067 0.107245-0.440268 0.262467-0.609601 0.465667-0.163689 0.2032-0.290689 0.451556-0.381 0.745067-0.09031 0.287867-0.135466 0.6096-0.135466 0.9652z"/>
  <path d="m19.692233 10.024994v0.7112h-1.845734v5.156202h-0.821267v-5.156202h-1.845734v-0.7112z"/>
  <path d="m24.679075 10.024994v0.7112h-1.845734v5.156202h-0.821267v-5.156202h-1.845734v-0.7112z"/>
 </g>
</svg>
